<?xml version="1.0" encoding="UTF-8"?>
<svg width="800" height="400" viewBox="0 0 800 400" xmlns="http://www.w3.org/2000/svg">
    <!-- 开始节点 -->
    <g transform="translate(400,50)">
        <rect x="-60" y="-25" width="120" height="50" rx="25" fill="#4A90E2"/>
        <text x="0" y="5" text-anchor="middle" fill="white" font-size="16">开始</text>
        <!-- 连接线 -->
        <line x1="0" y1="25" x2="0" y2="75" stroke="#666" stroke-width="2" marker-end="url(#arrowhead)"/>
    </g>

    <!-- 箭头标记定义 -->
    <defs>
        <marker id="arrowhead" markerWidth="10" markerHeight="7" refX="9" refY="3.5" orient="auto">
            <polygon points="0 0, 10 3.5, 0 7" fill="#666"/>
        </marker>
    </defs>

    <!-- 流程节点1 -->
    <g transform="translate(400,150)">
        <rect x="-100" y="-25" width="200" height="50" fill="#50E3C2" rx="5"/>
        <text x="0" y="5" text-anchor="middle" fill="white" font-size="16">数据收集与预处理</text>
        <!-- 连接线 -->
        <line x1="0" y1="25" x2="0" y2="75" stroke="#666" stroke-width="2" marker-end="url(#arrowhead)"/>
    </g>

    <!-- 判断节点 -->
    <g transform="translate(400,250)">
        <path d="M 0,-25 L 75,0 L 0,25 L -75,0 Z" fill="#4A90E2"/>
        <text x="0" y="5" text-anchor="middle" fill="white" font-size="14">数据是否完整</text>
        <!-- 连接线-是 -->
        <line x1="75" y1="0" x2="150" y2="0" stroke="#666" stroke-width="2" marker-end="url(#arrowhead)"/>
        <text x="110" y="-10" fill="#666" font-size="14">是</text>
        <!-- 连接线-否 -->
        <line x1="-75" y1="0" x2="-150" y2="0" stroke="#666" stroke-width="2" marker-end="url(#arrowhead)"/>
        <text x="-110" y="-10" fill="#666" font-size="14">否</text>
    </g>

    <!-- 分支节点-是 -->
    <g transform="translate(600,250)">
        <rect x="-50" y="-25" width="100" height="50" fill="#50E3C2" rx="5"/>
        <text x="0" y="5" text-anchor="middle" fill="white" font-size="14">数据分析</text>
        <!-- 连接线 -->
        <line x1="0" y1="25" x2="0" y2="75" stroke="#666" stroke-width="2" marker-end="url(#arrowhead)"/>
    </g>

    <!-- 分支节点-否 -->
    <g transform="translate(200,250)">
        <rect x="-50" y="-25" width="100" height="50" fill="#50E3C2" rx="5"/>
        <text x="0" y="5" text-anchor="middle" fill="white" font-size="14">数据修正</text>
        <!-- 连接线回到主流程 -->
        <path d="M 0,25 C 0,50 100,50 100,25" fill="none" stroke="#666" stroke-width="2" marker-end="url(#arrowhead)"/>
    </g>

    <!-- 结束节点 -->
    <g transform="translate(600,350)">
        <rect x="-60" y="-25" width="120" height="50" rx="25" fill="#4A90E2"/>
        <text x="0" y="5" text-anchor="middle" fill="white" font-size="16">结束</text>
    </g>
</svg>
